<svg height="512pt" viewBox="0 0 512.0005 512" width="512pt" xmlns="http://www.w3.org/2000/svg"><path d="m165.089844 124.886719c-3.898438-5.101563-10.5-7.5-16.496094-5.699219-3.902344 1.199219-8.101562 1.800781-12.601562 1.800781h-1.199219c-23.996094-.601562-43.796875-21.398437-43.796875-45.996093 0-18.597657 11.699218-35.394532 29.097656-41.996094 6-2.398438 9.902344-8.101563 9.902344-14.398438-.300782-6.296875-4.199219-12-10.199219-14.097656-9.300781-3-18.898437-4.5-28.800781-4.5-49.492188 0-90.9882815 41.496094-90.9882815 90.992188 0 49.492187 41.4960935 89.988281 90.9882815 89.988281 15.601562 0 30.597656-3.898438 43.796875-11.398438 12-6.300781 22.199219-15.898437 30.296875-27.296875 3.601562-5.402344 3.601562-12.300781 0-17.398437zm0 0" fill="#a8ebfa"/><path d="m300.066406 8.972656c-4.308594-11.863281-23.875-11.863281-28.183594 0l-87.261718 241.871094c-2.84375 7.792969 1.183594 16.390625 8.960937 19.21875l116.539063 12.601562 34.9375-148.054687zm0 0" fill="#00b44b"/><path d="m509.25 354.660156c-2.699219 3.898438-7.5 6.300782-12.296875 6.300782h-94.589844l-26.398437-22.796876-101.386719-87.292968 87.289063-241.871094c2.097656-6 8.097656-9 14.097656-9s12 3 14.097656 9l120.984375 331.859375c1.804687 4.5.902344 9.597656-1.796875 13.800781zm0 0" fill="#70da40"/><path d="m509.25 354.660156c-2.699219 3.898438-7.5 6.300782-12.296875 6.300782h-94.589844l-26.398437-22.796876v-338.164062c6 0 12 3 14.097656 9l120.988281 331.859375c1.800781 4.5.898438 9.597656-1.800781 13.800781zm0 0" fill="#56c225"/><path d="m416.460938 266.46875-25.496094 25.796875v11.699219c0 8.402344-6.597656 15-15 15-8.398438 0-14.996094-6.597656-14.996094-15v-107.988282c0-8.398437 6.597656-14.996093 14.996094-14.996093 8.402344 0 15 6.597656 15 14.996093v53.695313l4.5-4.199219c5.699218-6 15.296875-6 20.996094 0 6 5.699219 6 15.296875 0 20.996094zm0 0" fill="#b35f49"/><path d="m416.460938 266.46875-25.496094 25.796875v11.699219c0 8.402344-6.597656 15-15 15v-137.984375c8.402344 0 15 6.597656 15 14.996093v53.695313l4.5-4.199219c5.699218-6 15.296875-6 20.996094 0 6 5.699219 6 15.296875 0 20.996094zm0 0" fill="#99503d"/><path d="m509.550781 488.84375-150.984375-240.972656c-2.699218-4.199219-7.5-6.898438-12.597656-6.898438h-209.976562l51.839843 153.125 92.445313 117.84375h216.671875c5.402343 0 10.5-3 13.199219-7.796875 2.703124-4.804687 2.402343-10.5-.597657-15.300781zm0 0" fill="#ff9f00"/><path d="m280.277344 511.941406h-129.285156l-15-29.996094-15 29.996094h-105.984376c-5.101562 0-9.902343-2.699218-12.898437-7.199218-2.703125-4.199219-2.703125-9.898438-.601563-14.398438l119.484376-237.972656h29.996093zm0 0" fill="#ffe470"/><path d="m280.277344 511.941406h-129.285156l-15-29.996094v-229.574218h15zm0 0" fill="#ffd400"/><path d="m150.992188 252.371094v259.570312h-29.996094v-259.570312l1.5-3c2.699218-5.398438 8.097656-8.398438 13.496094-8.398438 5.398437 0 10.800781 3 13.5 8.398438zm0 0" fill="#fdbf00"/></svg>